<?xml version="1.0" encoding="UTF-8" standalone="no"?>
<!DOCTYPE svg PUBLIC "-//W3C//DTD SVG 1.1//EN"
 "http://www.w3.org/Graphics/SVG/1.1/DTD/svg11.dtd">
<!-- Generated by graphviz version 12.2.1 (20241206.2353)
 -->
<!-- Title: G Pages: 1 -->
<svg width="1305pt" height="747pt"
 viewBox="0.00 0.00 1304.93 747.22" xmlns="http://www.w3.org/2000/svg" xmlns:xlink="http://www.w3.org/1999/xlink">
<g id="graph0" class="graph" transform="scale(1 1) rotate(0) translate(4 743.22)">
<title>G</title><style>.edge>path:hover{stroke-width:8}</style>
<polygon fill="white" stroke="none" points="-4,4 -4,-743.22 1300.93,-743.22 1300.93,4 -4,4"/>
<!-- Data -->
<g id="node1" class="node">
<title>Data</title><style>.edge>path:hover{stroke-width:8}</style>
<ellipse fill="#f91010" stroke="black" cx="333.56" cy="-394.36" rx="27" ry="18"/>
<text text-anchor="middle" x="333.56" y="-390.86" font-family="Helvetica,sans-Serif" font-size="10.00" fill="#ffffff">Data</text>
</g>
<!-- Experiments_cnn_experiment -->
<g id="node8" class="node">
<title>Experiments_cnn_experiment</title><style>.edge>path:hover{stroke-width:8}</style>
<ellipse fill="#6b522e" stroke="black" cx="487.56" cy="-140.88" rx="60.1" ry="22.63"/>
<text text-anchor="middle" x="487.56" y="-143.38" font-family="Helvetica,sans-Serif" font-size="10.00" fill="#ffffff">Experiments.</text>
<text text-anchor="middle" x="487.56" y="-131.38" font-family="Helvetica,sans-Serif" font-size="10.00" fill="#ffffff">cnn_experiment</text>
</g>
<!-- Data&#45;&gt;Experiments_cnn_experiment -->
<g id="edge1" class="edge">
<title>Data&#45;&gt;Experiments_cnn_experiment</title><style>.edge>path:hover{stroke-width:8}</style>
<path fill="none" stroke="black" d="M331.43,-375.94C330.06,-360.67 329.25,-337.97 333.56,-318.76"/>
</g>
<!-- Portfolio_portfolio -->
<g id="node17" class="node">
<title>Portfolio_portfolio</title><style>.edge>path:hover{stroke-width:8}</style>
<ellipse fill="#3d8f5e" stroke="black" cx="510.56" cy="-259.14" rx="38.89" ry="22.63"/>
<text text-anchor="middle" x="510.56" y="-261.64" font-family="Helvetica,sans-Serif" font-size="10.00" fill="#ffffff">Portfolio.</text>
<text text-anchor="middle" x="510.56" y="-249.64" font-family="Helvetica,sans-Serif" font-size="10.00" fill="#ffffff">portfolio</text>
</g>
<!-- Data&#45;&gt;Portfolio_portfolio -->
<g id="edge2" class="edge">
<title>Data&#45;&gt;Portfolio_portfolio</title><style>.edge>path:hover{stroke-width:8}</style>
<path fill="none" stroke="black" d="M351.97,-380.98C371.71,-367.18 403.35,-343.53 426.56,-318.76"/>
<path fill="none" stroke="black" d="M426.56,-317.76C439.98,-303.44 457.55,-290.71 473.15,-280.88"/>
<polygon fill="#f91010" stroke="black" points="474.55,-284.13 481.26,-275.93 470.9,-278.15 474.55,-284.13"/>
</g>
<!-- sample_codes_py -->
<g id="node18" class="node">
<title>sample_codes_py</title><style>.edge>path:hover{stroke-width:8}</style>
<ellipse fill="#5c4e92" stroke="black" cx="366.56" cy="-22.63" rx="57.98" ry="22.63"/>
<text text-anchor="middle" x="366.56" y="-25.13" font-family="Helvetica,sans-Serif" font-size="10.00" fill="#ffffff">sample_codes.</text>
<text text-anchor="middle" x="366.56" y="-13.13" font-family="Helvetica,sans-Serif" font-size="10.00" fill="#ffffff">py</text>
</g>
<!-- Data&#45;&gt;sample_codes_py -->
<g id="edge3" class="edge">
<title>Data&#45;&gt;sample_codes_py</title><style>.edge>path:hover{stroke-width:8}</style>
<path fill="none" stroke="black" d="M324.13,-377.16C305.59,-343.08 268.5,-262.05 295.56,-200.51"/>
</g>
<!-- Data_chart_dataset -->
<g id="node2" class="node">
<title>Data_chart_dataset</title><style>.edge>path:hover{stroke-width:8}</style>
<ellipse fill="#723131" stroke="black" cx="738.56" cy="-259.14" rx="53.21" ry="22.63"/>
<text text-anchor="middle" x="738.56" y="-261.64" font-family="Helvetica,sans-Serif" font-size="10.00" fill="#ffffff">Data.</text>
<text text-anchor="middle" x="738.56" y="-249.64" font-family="Helvetica,sans-Serif" font-size="10.00" fill="#ffffff">chart_dataset</text>
</g>
<!-- Data_chart_dataset&#45;&gt;Experiments_cnn_experiment -->
<g id="edge4" class="edge">
<title>Data_chart_dataset&#45;&gt;Experiments_cnn_experiment</title><style>.edge>path:hover{stroke-width:8}</style>
<path fill="none" stroke="black" d="M697.13,-244.67C688.68,-241.94 679.84,-239.12 671.56,-236.51 619.68,-220.15 589.53,-242.19 554.56,-200.51"/>
</g>
<!-- Data_chart_library -->
<g id="node3" class="node">
<title>Data_chart_library</title><style>.edge>path:hover{stroke-width:8}</style>
<ellipse fill="#a44646" stroke="black" cx="129.56" cy="-394.36" rx="48.97" ry="22.63"/>
<text text-anchor="middle" x="129.56" y="-396.86" font-family="Helvetica,sans-Serif" font-size="10.00" fill="#ffffff">Data.</text>
<text text-anchor="middle" x="129.56" y="-384.86" font-family="Helvetica,sans-Serif" font-size="10.00" fill="#ffffff">chart_library</text>
</g>
<!-- Data_generate_chart -->
<g id="node6" class="node">
<title>Data_generate_chart</title><style>.edge>path:hover{stroke-width:8}</style>
<ellipse fill="#793434" stroke="black" cx="210.56" cy="-259.14" rx="56.92" ry="22.63"/>
<text text-anchor="middle" x="210.56" y="-261.64" font-family="Helvetica,sans-Serif" font-size="10.00" fill="#ffffff">Data.</text>
<text text-anchor="middle" x="210.56" y="-249.64" font-family="Helvetica,sans-Serif" font-size="10.00" fill="#ffffff">generate_chart</text>
</g>
<!-- Data_chart_library&#45;&gt;Data_generate_chart -->
<g id="edge5" class="edge">
<title>Data_chart_library&#45;&gt;Data_generate_chart</title><style>.edge>path:hover{stroke-width:8}</style>
<path fill="none" stroke="black" d="M100.86,-375.69C66.52,-354.4 13.7,-321.19 14.56,-318.76"/>
</g>
<!-- Data_dgp_config -->
<g id="node4" class="node">
<title>Data_dgp_config</title><style>.edge>path:hover{stroke-width:8}</style>
<ellipse fill="#dd1818" stroke="black" cx="315.56" cy="-492.59" rx="44.72" ry="22.63"/>
<text text-anchor="middle" x="315.56" y="-495.09" font-family="Helvetica,sans-Serif" font-size="10.00" fill="#ffffff">Data.</text>
<text text-anchor="middle" x="315.56" y="-483.09" font-family="Helvetica,sans-Serif" font-size="10.00" fill="#ffffff">dgp_config</text>
</g>
<!-- Data_dgp_config&#45;&gt;Data_chart_dataset -->
<g id="edge6" class="edge">
<title>Data_dgp_config&#45;&gt;Data_chart_dataset</title><style>.edge>path:hover{stroke-width:8}</style>
<path fill="none" stroke="black" d="M359.93,-488.49C436.95,-482.32 591.23,-466.23 633.56,-433.96 664.61,-410.29 646.23,-384.46 671.56,-354.76 689.81,-333.38 713.98,-345.19 723.56,-318.76"/>
</g>
<!-- Data_dgp_config&#45;&gt;Data_chart_library -->
<g id="edge7" class="edge">
<title>Data_dgp_config&#45;&gt;Data_chart_library</title><style>.edge>path:hover{stroke-width:8}</style>
<path fill="none" stroke="black" d="M282.18,-477.16C257.16,-466.05 222.26,-449.95 192.56,-433.96 184.21,-429.46 175.43,-424.35 167.16,-419.34"/>
<polygon fill="#dd1818" stroke="black" points="169.04,-416.38 158.69,-414.13 165.37,-422.35 169.04,-416.38"/>
</g>
<!-- Data_equity_data -->
<g id="node5" class="node">
<title>Data_equity_data</title><style>.edge>path:hover{stroke-width:8}</style>
<ellipse fill="#bf2121" stroke="black" cx="577.56" cy="-394.36" rx="46.85" ry="22.63"/>
<text text-anchor="middle" x="577.56" y="-396.86" font-family="Helvetica,sans-Serif" font-size="10.00" fill="#ffffff">Data.</text>
<text text-anchor="middle" x="577.56" y="-384.86" font-family="Helvetica,sans-Serif" font-size="10.00" fill="#ffffff">equity_data</text>
</g>
<!-- Data_dgp_config&#45;&gt;Data_equity_data -->
<g id="edge8" class="edge">
<title>Data_dgp_config&#45;&gt;Data_equity_data</title><style>.edge>path:hover{stroke-width:8}</style>
<path fill="none" stroke="black" d="M351.17,-478.51C397.54,-461.48 478.74,-431.66 530.25,-412.74"/>
<polygon fill="#dd1818" stroke="black" points="531.17,-416.13 539.35,-409.4 528.75,-409.56 531.17,-416.13"/>
</g>
<!-- Data_dgp_config&#45;&gt;Data_generate_chart -->
<g id="edge9" class="edge">
<title>Data_dgp_config&#45;&gt;Data_generate_chart</title><style>.edge>path:hover{stroke-width:8}</style>
<path fill="none" stroke="black" d="M280.81,-477.87C261.48,-468.43 238.73,-453.95 225.56,-433.96 197.02,-390.62 213.79,-370.15 206.56,-318.76"/>
<path fill="none" stroke="black" d="M206.56,-317.76C205.23,-309.93 205.1,-301.42 205.57,-293.4"/>
<polygon fill="#dd1818" stroke="black" points="209.03,-293.94 206.46,-283.66 202.06,-293.3 209.03,-293.94"/>
</g>
<!-- Data_dgp_config&#45;&gt;Experiments_cnn_experiment -->
<g id="edge10" class="edge">
<title>Data_dgp_config&#45;&gt;Experiments_cnn_experiment</title><style>.edge>path:hover{stroke-width:8}</style>
<path fill="none" stroke="black" d="M388.56,-393.36C394.8,-358.67 397.88,-349.81 412.56,-317.76 430.22,-279.21 430.03,-263.7 462.56,-236.51 496.26,-208.36 582.79,-234.15 554.56,-200.51"/>
<path fill="none" stroke="black" d="M336.38,-472.32C347.13,-461.67 359.97,-447.83 369.56,-433.96 380.44,-418.24 382.36,-413.45 388.56,-395.36"/>
</g>
<!-- Data_equity_data&#45;&gt;Data_chart_dataset -->
<g id="edge11" class="edge">
<title>Data_equity_data&#45;&gt;Data_chart_dataset</title><style>.edge>path:hover{stroke-width:8}</style>
<path fill="none" stroke="black" d="M604.03,-375.29C614.55,-368.46 626.91,-360.87 638.56,-354.76 674.91,-335.73 709.58,-357.33 723.56,-318.76"/>
<path fill="none" stroke="black" d="M723.56,-317.76C726.41,-309.9 728.96,-301.26 731.11,-293.11"/>
<polygon fill="#bf2121" stroke="black" points="734.48,-294.07 733.51,-283.52 727.69,-292.37 734.48,-294.07"/>
</g>
<!-- Data_equity_data&#45;&gt;Data_generate_chart -->
<g id="edge12" class="edge">
<title>Data_equity_data&#45;&gt;Data_generate_chart</title><style>.edge>path:hover{stroke-width:8}</style>
<path fill="none" stroke="black" d="M540.69,-379.98C475.03,-356.14 337.69,-306.29 262.5,-278.99"/>
<polygon fill="#bf2121" stroke="black" points="263.89,-275.77 253.3,-275.65 261.5,-282.35 263.89,-275.77"/>
</g>
<!-- Data_equity_data&#45;&gt;Experiments_cnn_experiment -->
<g id="edge13" class="edge">
<title>Data_equity_data&#45;&gt;Experiments_cnn_experiment</title><style>.edge>path:hover{stroke-width:8}</style>
<path fill="none" stroke="black" d="M657.56,-258.14C638.63,-209.22 588.28,-240.69 554.56,-200.51"/>
<path fill="none" stroke="black" d="M619.56,-317.76C619.01,-287.09 668.64,-288.75 657.56,-260.14"/>
</g>
<!-- Data_equity_data&#45;&gt;Portfolio_portfolio -->
<g id="edge14" class="edge">
<title>Data_equity_data&#45;&gt;Portfolio_portfolio</title><style>.edge>path:hover{stroke-width:8}</style>
<path fill="none" stroke="black" d="M596.59,-373.19C607.88,-359.06 619.93,-339.12 619.56,-318.76"/>
<path fill="none" stroke="black" d="M619.56,-317.76C619.49,-313.73 581.61,-294.42 550.53,-279.25"/>
<polygon fill="#bf2121" stroke="black" points="552.21,-276.17 541.68,-274.95 549.15,-282.47 552.21,-276.17"/>
</g>
<!-- Data_generate_chart&#45;&gt;sample_codes_py -->
<g id="edge15" class="edge">
<title>Data_generate_chart&#45;&gt;sample_codes_py</title><style>.edge>path:hover{stroke-width:8}</style>
<path fill="none" stroke="black" d="M295.56,-199.51C306.93,-164.21 293.7,-148.92 314.56,-118.25 330.38,-95.02 370.41,-110.1 366.56,-82.25"/>
<path fill="none" stroke="black" d="M250.65,-242.74C268.37,-233.52 287.09,-219.77 295.56,-200.51"/>
<path fill="none" stroke="black" d="M366.56,-81.25C365.23,-73.44 364.72,-64.93 364.66,-56.92"/>
<polygon fill="#793434" stroke="black" points="368.15,-57.23 364.81,-47.18 361.15,-57.12 368.15,-57.23"/>
</g>
<!-- Experiments -->
<g id="node7" class="node">
<title>Experiments</title><style>.edge>path:hover{stroke-width:8}</style>
<ellipse fill="#b68e53" stroke="black" cx="366.56" cy="-140.88" rx="42.54" ry="18"/>
<text text-anchor="middle" x="366.56" y="-137.38" font-family="Helvetica,sans-Serif" font-size="10.00" fill="#000000">Experiments</text>
</g>
<!-- Experiments&#45;&gt;sample_codes_py -->
<g id="edge16" class="edge">
<title>Experiments&#45;&gt;sample_codes_py</title><style>.edge>path:hover{stroke-width:8}</style>
<path fill="none" stroke="black" d="M367.8,-122.4C368.31,-110.93 368.41,-95.63 366.56,-82.25"/>
</g>
<!-- Experiments_cnn_experiment&#45;&gt;sample_codes_py -->
<g id="edge17" class="edge">
<title>Experiments_cnn_experiment&#45;&gt;sample_codes_py</title><style>.edge>path:hover{stroke-width:8}</style>
<path fill="none" stroke="black" d="M446.16,-124.09C411.61,-110.3 367.79,-91.16 366.56,-82.25"/>
</g>
<!-- Misc -->
<g id="node9" class="node">
<title>Misc</title><style>.edge>path:hover{stroke-width:8}</style>
<ellipse fill="#c7f316" stroke="black" cx="407.56" cy="-641.22" rx="27" ry="18"/>
<text text-anchor="middle" x="407.56" y="-637.72" font-family="Helvetica,sans-Serif" font-size="10.00" fill="#000000">Misc</text>
</g>
<!-- Misc&#45;&gt;Data_chart_dataset -->
<g id="edge18" class="edge">
<title>Misc&#45;&gt;Data_chart_dataset</title><style>.edge>path:hover{stroke-width:8}</style>
<path fill="none" stroke="black" d="M434.42,-637.93C503.73,-631.5 686.17,-611 728.56,-570.22"/>
<path fill="none" stroke="black" d="M728.56,-568.22C758.19,-539.71 804.52,-435.25 794.56,-395.36"/>
</g>
<!-- Misc&#45;&gt;Data_dgp_config -->
<g id="edge19" class="edge">
<title>Misc&#45;&gt;Data_dgp_config</title><style>.edge>path:hover{stroke-width:8}</style>
<path fill="none" stroke="black" d="M397.54,-624.24C382.48,-600.24 353.73,-554.42 334.6,-523.93"/>
<polygon fill="#c7f316" stroke="black" points="337.6,-522.12 329.32,-515.51 331.67,-525.84 337.6,-522.12"/>
</g>
<!-- Misc&#45;&gt;Data_generate_chart -->
<g id="edge20" class="edge">
<title>Misc&#45;&gt;Data_generate_chart</title><style>.edge>path:hover{stroke-width:8}</style>
<path fill="none" stroke="black" d="M380.16,-640.39C302.94,-640.28 86.06,-635.59 38.56,-587.22 -21.64,-525.9 4.08,-480.65 14.56,-395.36"/>
<path fill="none" stroke="black" d="M14.56,-393.36C20.81,-360.8 3.39,-349.98 14.56,-318.76"/>
<path fill="none" stroke="black" d="M14.56,-317.76C23.7,-292.24 91.82,-276.65 145.22,-268.23"/>
<polygon fill="#c7f316" stroke="black" points="145.51,-271.73 154.87,-266.77 144.46,-264.81 145.51,-271.73"/>
</g>
<!-- Misc&#45;&gt;Experiments_cnn_experiment -->
<g id="edge21" class="edge">
<title>Misc&#45;&gt;Experiments_cnn_experiment</title><style>.edge>path:hover{stroke-width:8}</style>
<path fill="none" stroke="black" d="M14.56,-393.36C20.33,-363.32 44.27,-368.58 71.56,-354.76 157.85,-311.08 185.79,-315.14 276.56,-281.76 301.99,-272.41 307.93,-268.91 333.56,-260.14"/>
<path fill="none" stroke="black" d="M554.56,-199.51C545.3,-188.5 533.84,-177.83 523.03,-168.72"/>
<polygon fill="#c7f316" stroke="black" points="525.29,-166.05 515.34,-162.42 520.86,-171.47 525.29,-166.05"/>
<path fill="none" stroke="black" d="M333.56,-258.14C345.21,-252.83 341.42,-242.79 352.56,-236.51 432.01,-191.74 613.27,-270.29 554.56,-200.51"/>
</g>
<!-- Model_cnn_model -->
<g id="node13" class="node">
<title>Model_cnn_model</title><style>.edge>path:hover{stroke-width:8}</style>
<ellipse fill="#519640" stroke="black" cx="905.56" cy="-394.36" rx="44.72" ry="22.63"/>
<text text-anchor="middle" x="905.56" y="-396.86" font-family="Helvetica,sans-Serif" font-size="10.00" fill="#ffffff">Model.</text>
<text text-anchor="middle" x="905.56" y="-384.86" font-family="Helvetica,sans-Serif" font-size="10.00" fill="#ffffff">cnn_model</text>
</g>
<!-- Misc&#45;&gt;Model_cnn_model -->
<g id="edge22" class="edge">
<title>Misc&#45;&gt;Model_cnn_model</title><style>.edge>path:hover{stroke-width:8}</style>
<path fill="none" stroke="black" d="M918.56,-491.59C917.82,-470.34 914.66,-446.68 911.64,-428.13"/>
<polygon fill="#c7f316" stroke="black" points="915.13,-427.8 910,-418.53 908.23,-428.98 915.13,-427.8"/>
<path fill="none" stroke="black" d="M434.77,-638.96C492.77,-635.63 632.28,-624.12 742.56,-587.22 784.58,-573.16 920.11,-537.86 918.56,-493.59"/>
</g>
<!-- Misc&#45;&gt;Portfolio_portfolio -->
<g id="edge23" class="edge">
<title>Misc&#45;&gt;Portfolio_portfolio</title><style>.edge>path:hover{stroke-width:8}</style>
<path fill="none" stroke="black" d="M407.32,-622.98C406.6,-559.47 405.68,-341.05 426.56,-318.76"/>
</g>
<!-- Misc_config -->
<g id="node10" class="node">
<title>Misc_config</title><style>.edge>path:hover{stroke-width:8}</style>
<ellipse fill="#b1ce3b" stroke="black" cx="875.56" cy="-641.22" rx="39.84" ry="18"/>
<text text-anchor="middle" x="875.56" y="-637.72" font-family="Helvetica,sans-Serif" font-size="10.00" fill="#000000">Misc.config</text>
</g>
<!-- Misc_config&#45;&gt;Data_dgp_config -->
<g id="edge24" class="edge">
<title>Misc_config&#45;&gt;Data_dgp_config</title><style>.edge>path:hover{stroke-width:8}</style>
<path fill="none" stroke="black" d="M838.33,-634.37C816.79,-631.02 789.16,-626.79 764.56,-623.22 648.25,-606.32 614.84,-621.99 502.56,-587.22 447.72,-570.23 389.28,-538.5 352.61,-516.73"/>
<polygon fill="#b1ce3b" stroke="black" points="354.54,-513.8 344.17,-511.65 350.93,-519.8 354.54,-513.8"/>
</g>
<!-- Misc_config&#45;&gt;Experiments_cnn_experiment -->
<g id="edge25" class="edge">
<title>Misc_config&#45;&gt;Experiments_cnn_experiment</title><style>.edge>path:hover{stroke-width:8}</style>
<path fill="none" stroke="black" d="M918.56,-568.22C975.61,-463.65 949.24,-417.03 1016.56,-318.76"/>
</g>
<!-- Misc_config&#45;&gt;Model_cnn_model -->
<g id="edge26" class="edge">
<title>Misc_config&#45;&gt;Model_cnn_model</title><style>.edge>path:hover{stroke-width:8}</style>
<path fill="none" stroke="black" d="M918.56,-568.22C934.45,-539.1 921.48,-526.63 918.56,-493.59"/>
<path fill="none" stroke="black" d="M886.49,-623.53C895.49,-609.52 908.39,-588.87 918.56,-570.22"/>
</g>
<!-- Misc_utilities -->
<g id="node11" class="node">
<title>Misc_utilities</title><style>.edge>path:hover{stroke-width:8}</style>
<ellipse fill="#a7c823" stroke="black" cx="723.56" cy="-394.36" rx="42.54" ry="18"/>
<text text-anchor="middle" x="723.56" y="-390.86" font-family="Helvetica,sans-Serif" font-size="10.00" fill="#000000">Misc.utilities</text>
</g>
<!-- Misc_utilities&#45;&gt;Data_chart_dataset -->
<g id="edge27" class="edge">
<title>Misc_utilities&#45;&gt;Data_chart_dataset</title><style>.edge>path:hover{stroke-width:8}</style>
<path fill="none" stroke="black" d="M720.33,-376.2C718.15,-360.7 716.77,-337.51 723.56,-318.76"/>
</g>
<!-- Misc_utilities&#45;&gt;Data_generate_chart -->
<g id="edge28" class="edge">
<title>Misc_utilities&#45;&gt;Data_generate_chart</title><style>.edge>path:hover{stroke-width:8}</style>
<path fill="none" stroke="black" d="M696.5,-380.19C678.88,-372.02 655.24,-361.77 633.56,-354.76 566.68,-333.15 372.18,-292.69 271.92,-272.4"/>
<polygon fill="#a7c823" stroke="black" points="272.74,-269 262.24,-270.45 271.35,-275.86 272.74,-269"/>
</g>
<!-- Misc_utilities&#45;&gt;Experiments_cnn_experiment -->
<g id="edge29" class="edge">
<title>Misc_utilities&#45;&gt;Experiments_cnn_experiment</title><style>.edge>path:hover{stroke-width:8}</style>
<path fill="none" stroke="black" d="M657.56,-317.76C639.12,-299.99 666.81,-284.02 657.56,-260.14"/>
</g>
<!-- Misc_utilities&#45;&gt;Portfolio_portfolio -->
<g id="edge30" class="edge">
<title>Misc_utilities&#45;&gt;Portfolio_portfolio</title><style>.edge>path:hover{stroke-width:8}</style>
<path fill="none" stroke="black" d="M657.56,-317.76C623.85,-285.28 601.94,-299.39 558.56,-281.76 556.06,-280.75 553.5,-279.68 550.92,-278.58"/>
<polygon fill="#a7c823" stroke="black" points="552.33,-275.37 541.76,-274.59 549.53,-281.79 552.33,-275.37"/>
<path fill="none" stroke="black" d="M710.36,-376.97C697.51,-361.39 677.11,-337.6 657.56,-318.76"/>
</g>
<!-- Model -->
<g id="node12" class="node">
<title>Model</title><style>.edge>path:hover{stroke-width:8}</style>
<ellipse fill="#67b653" stroke="black" cx="388.56" cy="-259.14" rx="27" ry="18"/>
<text text-anchor="middle" x="388.56" y="-255.64" font-family="Helvetica,sans-Serif" font-size="10.00" fill="#000000">Model</text>
</g>
<!-- Model&#45;&gt;Experiments_cnn_experiment -->
<g id="edge31" class="edge">
<title>Model&#45;&gt;Experiments_cnn_experiment</title><style>.edge>path:hover{stroke-width:8}</style>
<path fill="none" stroke="black" d="M408.61,-246.51C415.16,-243 422.55,-239.34 429.56,-236.51 483.19,-214.91 591.72,-244.8 554.56,-200.51"/>
</g>
<!-- Model_cnn_model&#45;&gt;Experiments_cnn_experiment -->
<g id="edge32" class="edge">
<title>Model_cnn_model&#45;&gt;Experiments_cnn_experiment</title><style>.edge>path:hover{stroke-width:8}</style>
<path fill="none" stroke="black" d="M1016.56,-317.76C1033.9,-292.46 1070.32,-286.46 1054.56,-260.14"/>
<path fill="none" stroke="black" d="M939.34,-379.12C964.45,-366.78 997.54,-346.54 1016.56,-318.76"/>
</g>
<!-- numpy -->
<g id="node14" class="node">
<title>numpy</title><style>.edge>path:hover{stroke-width:8}</style>
<ellipse fill="#06f9f9" stroke="black" cx="728.56" cy="-641.22" rx="27.21" ry="18"/>
<text text-anchor="middle" x="728.56" y="-637.72" font-family="Helvetica,sans-Serif" font-size="10.00" fill="#000000">numpy</text>
</g>
<!-- numpy&#45;&gt;Data_chart_dataset -->
<g id="edge33" class="edge">
<title>numpy&#45;&gt;Data_chart_dataset</title><style>.edge>path:hover{stroke-width:8}</style>
<path fill="none" stroke="black" d="M722.57,-623.45C718.01,-607.37 714.64,-583.61 728.56,-570.22"/>
</g>
<!-- numpy&#45;&gt;Data_chart_library -->
<g id="edge34" class="edge">
<title>numpy&#45;&gt;Data_chart_library</title><style>.edge>path:hover{stroke-width:8}</style>
<path fill="none" stroke="black" d="M701.43,-638.18C646.16,-633.49 516.99,-619.72 413.56,-587.22 342.25,-564.8 323.69,-556.79 261.56,-515.22 221.41,-488.34 181.14,-449.68 155.83,-423.59"/>
<polygon fill="#06f9f9" stroke="black" points="158.66,-421.48 149.21,-416.69 153.61,-426.33 158.66,-421.48"/>
</g>
<!-- numpy&#45;&gt;Data_equity_data -->
<g id="edge35" class="edge">
<title>numpy&#45;&gt;Data_equity_data</title><style>.edge>path:hover{stroke-width:8}</style>
<path fill="none" stroke="black" d="M716.98,-624.51C707.74,-610.92 695.55,-590.35 690.56,-570.22"/>
<path fill="none" stroke="black" d="M690.56,-568.22C676.3,-510.64 633.28,-455.29 604.63,-423.33"/>
<polygon fill="#06f9f9" stroke="black" points="607.32,-421.09 597.98,-416.07 602.15,-425.81 607.32,-421.09"/>
</g>
<!-- numpy&#45;&gt;Data_generate_chart -->
<g id="edge36" class="edge">
<title>numpy&#45;&gt;Data_generate_chart</title><style>.edge>path:hover{stroke-width:8}</style>
<path fill="none" stroke="black" d="M52.56,-393.36C47.81,-385.37 11.43,-327.52 14.56,-318.76"/>
<path fill="none" stroke="black" d="M701.2,-640.65C633.83,-640.88 455.46,-636.41 317.56,-587.22 196.24,-543.93 158,-529.47 71.56,-433.96 58.73,-419.78 62.35,-411.79 52.56,-395.36"/>
</g>
<!-- numpy&#45;&gt;Experiments_cnn_experiment -->
<g id="edge37" class="edge">
<title>numpy&#45;&gt;Experiments_cnn_experiment</title><style>.edge>path:hover{stroke-width:8}</style>
<path fill="none" stroke="black" d="M736.52,-623.75C747.95,-599.96 769.51,-554.5 786.56,-515.22 817.21,-444.64 798.57,-410.55 851.56,-354.76 920.12,-282.6 1105.68,-345.56 1054.56,-260.14"/>
<path fill="none" stroke="black" d="M1054.56,-258.14C987.77,-168.43 626.57,-286.1 554.56,-200.51"/>
</g>
<!-- numpy&#45;&gt;Misc_utilities -->
<g id="edge38" class="edge">
<title>numpy&#45;&gt;Misc_utilities</title><style>.edge>path:hover{stroke-width:8}</style>
<path fill="none" stroke="black" d="M690.56,-568.22C681.62,-532.09 748.42,-525.07 728.56,-493.59"/>
<path fill="none" stroke="black" d="M728.56,-491.59C715.88,-471.48 715.74,-444.04 718.12,-423.61"/>
<polygon fill="#06f9f9" stroke="black" points="721.55,-424.4 719.52,-414 714.62,-423.39 721.55,-424.4"/>
</g>
<!-- numpy&#45;&gt;Model_cnn_model -->
<g id="edge39" class="edge">
<title>numpy&#45;&gt;Model_cnn_model</title><style>.edge>path:hover{stroke-width:8}</style>
<path fill="none" stroke="black" d="M753.85,-633.74C806.22,-618.66 921.46,-576.04 918.56,-493.59"/>
</g>
<!-- numpy&#45;&gt;Portfolio_portfolio -->
<g id="edge40" class="edge">
<title>numpy&#45;&gt;Portfolio_portfolio</title><style>.edge>path:hover{stroke-width:8}</style>
<path fill="none" stroke="black" d="M701.6,-637.99C647.15,-632.87 527.16,-618.25 502.56,-587.22 433.67,-500.29 474.53,-355.66 497.8,-291.94"/>
<polygon fill="#06f9f9" stroke="black" points="501,-293.38 501.24,-282.79 494.44,-290.92 501,-293.38"/>
</g>
<!-- torch -->
<g id="node19" class="node">
<title>torch</title><style>.edge>path:hover{stroke-width:8}</style>
<polygon fill="blue" stroke="black" points="1076.56,-587.22 1022.56,-587.22 1022.56,-551.22 1076.56,-551.22 1076.56,-587.22"/>
<text text-anchor="middle" x="1049.56" y="-565.72" font-family="Helvetica,sans-Serif" font-size="10.00" fill="white">torch</text>
</g>
<!-- numpy&#45;&gt;torch -->
<g id="edge41" class="edge">
<title>numpy&#45;&gt;torch</title><style>.edge>path:hover{stroke-width:8}</style>
<path fill="none" stroke="black" d="M754.29,-634.61C810.57,-622.33 944.87,-593.05 1011.18,-578.59"/>
<polygon fill="#06f9f9" stroke="black" points="1011.86,-582.02 1020.88,-576.47 1010.36,-575.18 1011.86,-582.02"/>
</g>
<!-- pandas -->
<g id="node15" class="node">
<title>pandas</title><style>.edge>path:hover{stroke-width:8}</style>
<ellipse fill="#0667f9" stroke="black" cx="540.56" cy="-569.22" rx="28.56" ry="18"/>
<text text-anchor="middle" x="540.56" y="-565.72" font-family="Helvetica,sans-Serif" font-size="10.00" fill="#ffffff">pandas</text>
</g>
<!-- pandas&#45;&gt;Data_chart_dataset -->
<g id="edge42" class="edge">
<title>pandas&#45;&gt;Data_chart_dataset</title><style>.edge>path:hover{stroke-width:8}</style>
<path fill="none" stroke="black" d="M794.56,-393.36C790.08,-374.77 788.05,-369.25 775.56,-354.76 757.21,-333.47 713.98,-345.19 723.56,-318.76"/>
<path fill="none" stroke="black" d="M563.96,-558.55C629.21,-530.86 807.66,-449.68 794.56,-395.36"/>
</g>
<!-- pandas&#45;&gt;Data_equity_data -->
<g id="edge43" class="edge">
<title>pandas&#45;&gt;Data_equity_data</title><style>.edge>path:hover{stroke-width:8}</style>
<path fill="none" stroke="black" d="M540.56,-491.59C546.79,-469.67 555.97,-445.76 563.63,-427.25"/>
<polygon fill="#0667f9" stroke="black" points="566.8,-428.73 567.46,-418.16 560.35,-426.02 566.8,-428.73"/>
</g>
<!-- pandas&#45;&gt;Data_generate_chart -->
<g id="edge44" class="edge">
<title>pandas&#45;&gt;Data_generate_chart</title><style>.edge>path:hover{stroke-width:8}</style>
<path fill="none" stroke="black" d="M512.36,-564.91C461.45,-558.5 351.17,-542.53 261.56,-515.22 173.71,-488.43 138.21,-497.15 71.56,-433.96 57.69,-420.81 60.29,-412.85 52.56,-395.36"/>
</g>
<!-- pandas&#45;&gt;Experiments_cnn_experiment -->
<g id="edge45" class="edge">
<title>pandas&#45;&gt;Experiments_cnn_experiment</title><style>.edge>path:hover{stroke-width:8}</style>
<path fill="none" stroke="black" d="M517.84,-557.69C469.45,-533.62 362.68,-470.77 388.56,-395.36"/>
</g>
<!-- pandas&#45;&gt;Misc_utilities -->
<g id="edge46" class="edge">
<title>pandas&#45;&gt;Misc_utilities</title><style>.edge>path:hover{stroke-width:8}</style>
<path fill="none" stroke="black" d="M540.56,-491.59C557.38,-432.35 612.88,-464.13 666.56,-433.96 675.65,-428.85 685.16,-422.75 693.74,-416.92"/>
<polygon fill="#0667f9" stroke="black" points="695.51,-419.95 701.74,-411.38 691.52,-414.2 695.51,-419.95"/>
</g>
<!-- pandas&#45;&gt;Portfolio_portfolio -->
<g id="edge47" class="edge">
<title>pandas&#45;&gt;Portfolio_portfolio</title><style>.edge>path:hover{stroke-width:8}</style>
<path fill="none" stroke="black" d="M540.56,-491.59C547.93,-465.64 526.41,-460.49 521.56,-433.96 512.27,-383.11 520.35,-369.32 516.56,-317.76 515.98,-309.81 515.18,-301.26 514.36,-293.24"/>
<polygon fill="#0667f9" stroke="black" points="517.86,-293.08 513.32,-283.51 510.9,-293.82 517.86,-293.08"/>
<path fill="none" stroke="black" d="M537.75,-550.9C535.9,-535.5 534.77,-512.55 540.56,-493.59"/>
</g>
<!-- Portfolio -->
<g id="node16" class="node">
<title>Portfolio</title><style>.edge>path:hover{stroke-width:8}</style>
<ellipse fill="#53b67b" stroke="black" cx="598.56" cy="-259.14" rx="31.27" ry="18"/>
<text text-anchor="middle" x="598.56" y="-255.64" font-family="Helvetica,sans-Serif" font-size="10.00" fill="#000000">Portfolio</text>
</g>
<!-- Portfolio&#45;&gt;Experiments_cnn_experiment -->
<g id="edge48" class="edge">
<title>Portfolio&#45;&gt;Experiments_cnn_experiment</title><style>.edge>path:hover{stroke-width:8}</style>
<path fill="none" stroke="black" d="M586.99,-242.18C578.33,-230.44 566.05,-214.2 554.56,-200.51"/>
</g>
<!-- Portfolio_portfolio&#45;&gt;Experiments_cnn_experiment -->
<g id="edge49" class="edge">
<title>Portfolio_portfolio&#45;&gt;Experiments_cnn_experiment</title><style>.edge>path:hover{stroke-width:8}</style>
<path fill="none" stroke="black" d="M536.13,-241.93C551.47,-230.21 565.97,-214.11 554.56,-200.51"/>
</g>
<!-- torch&#45;&gt;Data_chart_dataset -->
<g id="edge50" class="edge">
<title>torch&#45;&gt;Data_chart_dataset</title><style>.edge>path:hover{stroke-width:8}</style>
<path fill="none" stroke="black" d="M1052.44,-550.93C1060.42,-500.74 1080.54,-356.23 1054.56,-318.76"/>
<path fill="none" stroke="black" d="M1054.56,-317.76C1023.57,-279.81 886.22,-266.81 803.14,-262.39"/>
<polygon fill="blue" stroke="black" points="803.47,-258.9 793.3,-261.89 803.12,-265.89 803.47,-258.9"/>
</g>
<!-- torch&#45;&gt;Experiments_cnn_experiment -->
<g id="edge51" class="edge">
<title>torch&#45;&gt;Experiments_cnn_experiment</title><style>.edge>path:hover{stroke-width:8}</style>
<path fill="none" stroke="black" d="M1054.56,-317.76C1038.36,-297.93 1067.72,-282.12 1054.56,-260.14"/>
</g>
<!-- torch&#45;&gt;Misc_utilities -->
<g id="edge52" class="edge">
<title>torch&#45;&gt;Misc_utilities</title><style>.edge>path:hover{stroke-width:8}</style>
<path fill="none" stroke="black" d="M1022.15,-564.07C947.4,-552.45 744.47,-518.81 728.56,-493.59"/>
</g>
<!-- torch&#45;&gt;Model_cnn_model -->
<g id="edge53" class="edge">
<title>torch&#45;&gt;Model_cnn_model</title><style>.edge>path:hover{stroke-width:8}</style>
<path fill="none" stroke="black" d="M1022.37,-555.64C984.3,-537.63 919.6,-505.35 918.56,-493.59"/>
</g>
<!-- torch_backends -->
<g id="node20" class="node">
<title>torch_backends</title><style>.edge>path:hover{stroke-width:8}</style>
<polygon fill="blue" stroke="black" points="1283.94,-659.22 1201.19,-659.22 1201.19,-623.22 1283.94,-623.22 1283.94,-659.22"/>
<text text-anchor="middle" x="1242.56" y="-637.72" font-family="Helvetica,sans-Serif" font-size="10.00" fill="white">torch.backends</text>
</g>
<!-- torch_backends&#45;&gt;Experiments_cnn_experiment -->
<g id="edge54" class="edge">
<title>torch_backends&#45;&gt;Experiments_cnn_experiment</title><style>.edge>path:hover{stroke-width:8}</style>
<path fill="none" stroke="black" d="M1242.56,-622.96C1242.56,-608.79 1242.56,-588.2 1242.56,-570.22"/>
</g>
<!-- torch_backends&#45;&gt;torch -->
<g id="edge55" class="edge">
<title>torch_backends&#45;&gt;torch</title><style>.edge>path:hover{stroke-width:8}</style>
<path fill="none" stroke="black" d="M1200.72,-626.35C1170.06,-616.01 1127.51,-601.3 1090.56,-587.22 1089.45,-586.79 1088.32,-586.35 1087.18,-585.91"/>
<polygon fill="blue" stroke="black" points="1088.81,-582.79 1078.23,-582.34 1086.22,-589.3 1088.81,-582.79"/>
</g>
<!-- torch_backends_cudnn -->
<g id="node21" class="node">
<title>torch_backends_cudnn</title><style>.edge>path:hover{stroke-width:8}</style>
<polygon fill="blue" stroke="black" points="1273.06,-739.22 1212.06,-739.22 1212.06,-695.22 1273.06,-695.22 1273.06,-739.22"/>
<text text-anchor="middle" x="1242.56" y="-725.72" font-family="Helvetica,sans-Serif" font-size="10.00" fill="white">torch.</text>
<text text-anchor="middle" x="1242.56" y="-713.72" font-family="Helvetica,sans-Serif" font-size="10.00" fill="white">backends.</text>
<text text-anchor="middle" x="1242.56" y="-701.72" font-family="Helvetica,sans-Serif" font-size="10.00" fill="white">cudnn</text>
</g>
<!-- torch_backends_cudnn&#45;&gt;Experiments_cnn_experiment -->
<g id="edge56" class="edge">
<title>torch_backends_cudnn&#45;&gt;Experiments_cnn_experiment</title><style>.edge>path:hover{stroke-width:8}</style>
<path fill="none" stroke="black" d="M1267.83,-694.97C1277.51,-685.2 1287.46,-672.77 1292.56,-659.22 1298.2,-644.24 1298.47,-638.08 1292.56,-623.22 1280.61,-593.12 1241.27,-602.57 1242.56,-570.22"/>
</g>
<!-- torch_backends_cudnn&#45;&gt;torch_backends -->
<g id="edge57" class="edge">
<title>torch_backends_cudnn&#45;&gt;torch_backends</title><style>.edge>path:hover{stroke-width:8}</style>
<path fill="none" stroke="black" d="M1242.56,-694.81C1242.56,-687.33 1242.56,-678.8 1242.56,-670.83"/>
<polygon fill="blue" stroke="black" points="1246.06,-670.86 1242.56,-660.86 1239.06,-670.86 1246.06,-670.86"/>
</g>
<!-- torch_nn -->
<g id="node22" class="node">
<title>torch_nn</title><style>.edge>path:hover{stroke-width:8}</style>
<polygon fill="blue" stroke="black" points="1063.56,-659.22 1009.56,-659.22 1009.56,-623.22 1063.56,-623.22 1063.56,-659.22"/>
<text text-anchor="middle" x="1036.56" y="-637.72" font-family="Helvetica,sans-Serif" font-size="10.00" fill="white">torch.nn</text>
</g>
<!-- torch_nn&#45;&gt;Experiments_cnn_experiment -->
<g id="edge58" class="edge">
<title>torch_nn&#45;&gt;Experiments_cnn_experiment</title><style>.edge>path:hover{stroke-width:8}</style>
<path fill="none" stroke="black" d="M1061.06,-622.73C1076.6,-610.1 1095.43,-591.55 1104.56,-570.22"/>
</g>
<!-- torch_nn&#45;&gt;Model_cnn_model -->
<g id="edge59" class="edge">
<title>torch_nn&#45;&gt;Model_cnn_model</title><style>.edge>path:hover{stroke-width:8}</style>
<path fill="none" stroke="black" d="M1010.39,-622.78C977.19,-598.42 923.6,-550.71 918.56,-493.59"/>
</g>
<!-- torch_nn&#45;&gt;torch -->
<g id="edge60" class="edge">
<title>torch_nn&#45;&gt;torch</title><style>.edge>path:hover{stroke-width:8}</style>
<path fill="none" stroke="black" d="M1039.78,-622.91C1041.15,-615.54 1042.78,-606.74 1044.32,-598.47"/>
<polygon fill="blue" stroke="black" points="1047.73,-599.28 1046.11,-588.81 1040.84,-598 1047.73,-599.28"/>
</g>
<!-- torch_optim -->
<g id="node23" class="node">
<title>torch_optim</title><style>.edge>path:hover{stroke-width:8}</style>
<polygon fill="blue" stroke="black" points="1145.94,-659.22 1081.19,-659.22 1081.19,-623.22 1145.94,-623.22 1145.94,-659.22"/>
<text text-anchor="middle" x="1113.56" y="-637.72" font-family="Helvetica,sans-Serif" font-size="10.00" fill="white">torch.optim</text>
</g>
<!-- torch_optim&#45;&gt;Experiments_cnn_experiment -->
<g id="edge61" class="edge">
<title>torch_optim&#45;&gt;Experiments_cnn_experiment</title><style>.edge>path:hover{stroke-width:8}</style>
<path fill="none" stroke="black" d="M1106.49,-622.84C1101.66,-608.24 1097.33,-587.11 1104.56,-570.22"/>
</g>
<!-- torch_optim&#45;&gt;torch -->
<g id="edge62" class="edge">
<title>torch_optim&#45;&gt;torch</title><style>.edge>path:hover{stroke-width:8}</style>
<path fill="none" stroke="black" d="M1097.74,-622.91C1090.23,-614.69 1081.09,-604.7 1072.81,-595.64"/>
<polygon fill="blue" stroke="black" points="1075.55,-593.46 1066.22,-588.44 1070.39,-598.18 1075.55,-593.46"/>
</g>
<!-- torch_utils -->
<g id="node24" class="node">
<title>torch_utils</title><style>.edge>path:hover{stroke-width:8}</style>
<polygon fill="blue" stroke="black" points="991.94,-659.22 933.19,-659.22 933.19,-623.22 991.94,-623.22 991.94,-659.22"/>
<text text-anchor="middle" x="962.56" y="-637.72" font-family="Helvetica,sans-Serif" font-size="10.00" fill="white">torch.utils</text>
</g>
<!-- torch_utils&#45;&gt;Data_chart_dataset -->
<g id="edge63" class="edge">
<title>torch_utils&#45;&gt;Data_chart_dataset</title><style>.edge>path:hover{stroke-width:8}</style>
<path fill="none" stroke="black" d="M968.32,-622.92C983,-575.36 1016.78,-440.52 959.56,-354.76 924.28,-301.88 852.74,-278.43 800.58,-268.11"/>
<polygon fill="blue" stroke="black" points="801.4,-264.7 790.93,-266.31 800.12,-271.58 801.4,-264.7"/>
</g>
<!-- torch_utils&#45;&gt;Experiments_cnn_experiment -->
<g id="edge64" class="edge">
<title>torch_utils&#45;&gt;Experiments_cnn_experiment</title><style>.edge>path:hover{stroke-width:8}</style>
<path fill="none" stroke="black" d="M1104.56,-568.22C1135.83,-478.59 1064.72,-437.32 1111.56,-354.76 1126.17,-329.03 1182.89,-344.08 1167.56,-318.76"/>
<path fill="none" stroke="black" d="M992.41,-626.8C995.16,-625.58 997.91,-624.37 1000.56,-623.22 1048.13,-602.51 1084.14,-617.91 1104.56,-570.22"/>
<path fill="none" stroke="black" d="M1167.56,-317.76C1137.24,-270.24 1088.23,-305.36 1054.56,-260.14"/>
</g>
<!-- torch_utils&#45;&gt;torch -->
<g id="edge65" class="edge">
<title>torch_utils&#45;&gt;torch</title><style>.edge>path:hover{stroke-width:8}</style>
<path fill="none" stroke="black" d="M984.07,-622.91C994.63,-614.41 1007.54,-604.03 1019.1,-594.73"/>
<polygon fill="blue" stroke="black" points="1021.23,-597.51 1026.83,-588.51 1016.84,-592.05 1021.23,-597.51"/>
</g>
<!-- torch_utils_data -->
<g id="node25" class="node">
<title>torch_utils_data</title><style>.edge>path:hover{stroke-width:8}</style>
<polygon fill="blue" stroke="black" points="989.56,-739.22 935.56,-739.22 935.56,-695.22 989.56,-695.22 989.56,-739.22"/>
<text text-anchor="middle" x="962.56" y="-725.72" font-family="Helvetica,sans-Serif" font-size="10.00" fill="white">torch.</text>
<text text-anchor="middle" x="962.56" y="-713.72" font-family="Helvetica,sans-Serif" font-size="10.00" fill="white">utils.</text>
<text text-anchor="middle" x="962.56" y="-701.72" font-family="Helvetica,sans-Serif" font-size="10.00" fill="white">data</text>
</g>
<!-- torch_utils_data&#45;&gt;Data_chart_dataset -->
<g id="edge66" class="edge">
<title>torch_utils_data&#45;&gt;Data_chart_dataset</title><style>.edge>path:hover{stroke-width:8}</style>
<path fill="none" stroke="black" d="M935.16,-712.9C903.57,-707.51 852.66,-693.73 826.56,-659.22 755.33,-564.98 824.24,-509.7 794.56,-395.36"/>
</g>
<!-- torch_utils_data&#45;&gt;Experiments_cnn_experiment -->
<g id="edge67" class="edge">
<title>torch_utils_data&#45;&gt;Experiments_cnn_experiment</title><style>.edge>path:hover{stroke-width:8}</style>
<path fill="none" stroke="black" d="M990.06,-712.48C1028.98,-706.24 1101.32,-691.12 1154.56,-659.22 1157.55,-657.43 1242.56,-573.69 1242.56,-570.22"/>
<path fill="none" stroke="black" d="M1242.56,-568.22C1242.92,-472.97 1272.87,-436.25 1223.56,-354.76 1208.25,-329.45 1183.48,-343.71 1167.56,-318.76"/>
</g>
<!-- torch_utils_data&#45;&gt;torch_utils -->
<g id="edge68" class="edge">
<title>torch_utils_data&#45;&gt;torch_utils</title><style>.edge>path:hover{stroke-width:8}</style>
<path fill="none" stroke="black" d="M962.56,-694.81C962.56,-687.33 962.56,-678.8 962.56,-670.83"/>
<polygon fill="blue" stroke="black" points="966.06,-670.86 962.56,-660.86 959.06,-670.86 966.06,-670.86"/>
</g>
<!-- torch_utils_data_DataLoader -->
<g id="node26" class="node">
<title>torch_utils_data_DataLoader</title><style>.edge>path:hover{stroke-width:8}</style>
<ellipse fill="#9246a4" stroke="black" cx="1167.56" cy="-394.36" rx="46.85" ry="39.6"/>
<text text-anchor="middle" x="1167.56" y="-408.86" font-family="Helvetica,sans-Serif" font-size="10.00" fill="#ffffff">torch.</text>
<text text-anchor="middle" x="1167.56" y="-396.86" font-family="Helvetica,sans-Serif" font-size="10.00" fill="#ffffff">utils.</text>
<text text-anchor="middle" x="1167.56" y="-384.86" font-family="Helvetica,sans-Serif" font-size="10.00" fill="#ffffff">data.</text>
<text text-anchor="middle" x="1167.56" y="-372.86" font-family="Helvetica,sans-Serif" font-size="10.00" fill="#ffffff">DataLoader</text>
</g>
<!-- torch_utils_data_DataLoader&#45;&gt;Experiments_cnn_experiment -->
<g id="edge69" class="edge">
<title>torch_utils_data_DataLoader&#45;&gt;Experiments_cnn_experiment</title><style>.edge>path:hover{stroke-width:8}</style>
<path fill="none" stroke="black" d="M1175.11,-354.83C1175.61,-342.55 1174,-329.4 1167.56,-318.76"/>
</g>
<!-- tqdm -->
<g id="node27" class="node">
<title>tqdm</title><style>.edge>path:hover{stroke-width:8}</style>
<ellipse fill="#c24791" stroke="black" cx="261.56" cy="-394.36" rx="27" ry="18"/>
<text text-anchor="middle" x="261.56" y="-390.86" font-family="Helvetica,sans-Serif" font-size="10.00" fill="#ffffff">tqdm</text>
</g>
<!-- tqdm&#45;&gt;Data_generate_chart -->
<g id="edge70" class="edge">
<title>tqdm&#45;&gt;Data_generate_chart</title><style>.edge>path:hover{stroke-width:8}</style>
<path fill="none" stroke="black" d="M244.83,-379.75C229.97,-366.17 210.08,-343.78 206.56,-318.76"/>
</g>
<!-- tqdm&#45;&gt;Experiments_cnn_experiment -->
<g id="edge71" class="edge">
<title>tqdm&#45;&gt;Experiments_cnn_experiment</title><style>.edge>path:hover{stroke-width:8}</style>
<path fill="none" stroke="black" d="M275.12,-378.59C281.82,-371.35 290.05,-362.54 297.56,-354.76 313.28,-338.49 328.61,-340.84 333.56,-318.76"/>
<path fill="none" stroke="black" d="M333.56,-317.76C339.18,-292.77 309.33,-268.43 333.56,-260.14"/>
</g>
</g>
</svg>
